<svg data-v-fde0c5aa="" xmlns="http://www.w3.org/2000/svg" viewBox="0 0 300 300" class="font"><!----><defs data-v-fde0c5aa=""><!----></defs><rect data-v-fde0c5aa="" fill="#F0EBE7" x="0" y="0" width="300px" height="300px" class="logo-background-square"></rect><defs data-v-fde0c5aa=""><linearGradient data-v-fde0c5aa="" gradientTransform="rotate(25)" id="fc6566ac-2825-4673-abc8-f1f40d573fb8" x1="0%" y1="0%" x2="100%" y2="0%"><stop data-v-fde0c5aa="" offset="0%" stop-color="#5F2517" stop-opacity="1"></stop><stop data-v-fde0c5aa="" offset="100%" stop-color="#CAB08D" stop-opacity="1"></stop></linearGradient></defs><g data-v-fde0c5aa="" id="a8532d9b-af4f-4d28-a5af-68a57572b290" fill="url(#fc6566ac-2825-4673-abc8-f1f40d573fb8)" transform="matrix(6.417369455902595,0,0,6.417369455902595,41.87359300741865,105.8484987477481)"><path d="M4.51 4.19L4.51 4.19Q4.62 3.49 4.62 3.07L4.62 3.07L4.62 3.07Q4.62 2.77 4.57 2.60L4.57 2.60L4.57 2.60Q4.52 2.44 4.45 2.44L4.45 2.44L4.45 2.44Q4.24 2.44 3.97 2.79L3.97 2.79L3.97 2.79Q3.70 3.14 3.51 3.62L3.51 3.62L3.51 3.62Q3.32 4.10 3.32 4.48L3.32 4.48L3.32 4.48Q3.32 4.96 3.79 5.44L3.79 5.44L3.79 5.44Q4.26 5.92 5.17 6.62L5.17 6.62L5.17 6.62Q5.85 7.13 6.19 7.46L6.19 7.46L6.19 7.46Q6.52 7.78 6.54 8.05L6.54 8.05L6.54 8.05Q6.55 8.64 5.92 9.21L5.92 9.21L5.92 9.21Q5.29 9.77 4.35 10.14L4.35 10.14L4.35 10.14Q3.40 10.50 2.59 10.50L2.59 10.50L2.59 10.50Q1.96 10.50 1.29 10.19L1.29 10.19L1.29 10.19Q0.62 9.87 0.17 9.44L0.17 9.44L0.17 9.44Q-0.28 9.02-0.29 8.69L-0.29 8.69L-0.29 8.69Q-0.32 8.08 0.11 7.69L0.11 7.69L0.11 7.69Q0.55 7.31 1.27 7.31L1.27 7.31L1.27 7.31Q1.64 7.31 2.02 7.41L2.02 7.41L2.02 7.41Q2.18 8.33 2.31 8.74L2.31 8.74L2.31 8.74Q3.14 8.53 4.10 8.01L4.10 8.01L4.10 8.01Q0.98 5.64 0.98 4.31L0.98 4.31L0.98 4.31Q0.98 3.67 1.46 2.76L1.46 2.76L1.46 2.76Q1.93 1.86 2.72 1.21L2.72 1.21L2.72 1.21Q3.50 0.56 4.37 0.56L4.37 0.56L4.37 0.56Q5.01 0.56 5.61 0.99L5.61 0.99L5.61 0.99Q6.22 1.43 6.59 2.06L6.59 2.06L6.59 2.06Q6.97 2.69 6.97 3.23L6.97 3.23L6.97 3.23Q6.97 3.77 6.54 4.08L6.54 4.08L6.54 4.08Q6.12 4.40 5.49 4.40L5.49 4.40L5.49 4.40Q5.00 4.40 4.51 4.19L4.51 4.19ZM12.14 2.84L12.14 2.84Q12.88 2.84 13.45 3.19L13.45 3.19L13.45 3.19Q14.03 3.54 14.34 4.15L14.34 4.15L14.34 4.15Q14.66 4.76 14.66 5.52L14.66 5.52L14.66 5.52Q14.66 6.64 14.02 7.80L14.02 7.80L14.02 7.80Q13.38 8.97 12.36 9.74L12.36 9.74L12.36 9.74Q11.33 10.50 10.22 10.50L10.22 10.50L10.22 10.50Q9.74 10.50 9.27 10.12L9.27 10.12L9.27 10.12Q9.10 10.82 9.01 11.56L9.01 11.56L9.01 11.56Q8.92 12.29 8.90 12.42L8.90 12.42L8.90 12.42Q8.79 13.37 8.69 13.79L8.69 13.79L8.69 13.79Q8.58 14.21 8.36 14.21L8.36 14.21L8.36 14.21Q7.99 14.21 7.55 13.97L7.55 13.97L7.55 13.97Q7.11 13.73 6.80 13.41L6.80 13.41L6.80 13.41Q6.48 13.08 6.48 12.84L6.48 12.84L6.48 12.84Q6.48 12.57 6.72 11.66L6.72 11.66L6.72 11.66Q6.96 10.75 7.45 9.03L7.45 9.03L7.45 9.03Q7.88 7.49 8.12 6.61L8.12 6.61L8.12 6.61Q8.36 5.73 8.36 5.49L8.36 5.49L8.36 5.49Q8.36 5.38 8.24 5.26L8.24 5.26L8.24 5.26Q8.12 5.14 7.85 4.91L7.85 4.91L7.85 4.91Q7.56 4.68 7.42 4.54L7.42 4.54L7.42 4.54Q7.28 4.40 7.28 4.24L7.28 4.24L7.28 4.24Q7.28 3.95 7.55 3.56L7.55 3.56L7.55 3.56Q7.83 3.16 8.20 2.88L8.20 2.88L8.20 2.88Q8.57 2.60 8.83 2.60L8.83 2.60L8.83 2.60Q9.24 2.60 9.76 3.05L9.76 3.05L9.76 3.05Q10.28 3.50 10.50 3.95L10.50 3.95L11.05 3.02L11.05 3.02Q11.59 2.84 12.14 2.84L12.14 2.84ZM10.22 8.71L10.22 8.71Q10.67 8.71 11.20 8.24L11.20 8.24L11.20 8.24Q11.73 7.77 12.10 7.08L12.10 7.08L12.10 7.08Q12.46 6.38 12.46 5.75L12.46 5.75L12.46 5.75Q12.46 5.29 12.24 5.04L12.24 5.04L12.24 5.04Q12.01 4.79 11.59 4.79L11.59 4.79L11.59 4.79Q11.10 4.79 10.70 5.34L10.70 5.34L10.70 5.34Q10.30 5.89 10.07 6.69L10.07 6.69L10.07 6.69Q9.84 7.49 9.84 8.16L9.84 8.16L9.84 8.16Q9.84 8.43 9.95 8.57L9.95 8.57L9.95 8.57Q10.05 8.71 10.22 8.71L10.22 8.71ZM18.16 2.20L18.16 2.20Q17.89 2.20 17.52 1.98L17.52 1.98L17.52 1.98Q17.15 1.76 16.88 1.46L16.88 1.46L16.88 1.46Q16.62 1.16 16.62 0.92L16.62 0.92L16.62 0.92Q16.62 0.55 16.81 0.17L16.81 0.17L16.81 0.17Q17.01-0.21 17.30-0.38L17.30-0.38L17.30-0.38Q17.44-0.45 17.75-0.45L17.75-0.45L17.75-0.45Q18.26-0.45 18.77-0.22L18.77-0.22L18.77-0.22Q19.28 0 19.39 0.34L19.39 0.34L19.39 0.34Q19.42 0.41 19.42 0.55L19.42 0.55L19.42 0.55Q19.42 0.87 19.22 1.26L19.22 1.26L19.22 1.26Q19.03 1.65 18.73 1.92L18.73 1.92L18.73 1.92Q18.44 2.20 18.16 2.20L18.16 2.20ZM17.21 10.50L17.21 10.50Q16.84 10.50 16.39 10.26L16.39 10.26L16.39 10.26Q15.93 10.01 15.60 9.68L15.60 9.68L15.60 9.68Q15.27 9.35 15.27 9.13L15.27 9.13L15.27 9.13Q15.27 8.88 15.46 8.39L15.46 8.39L15.46 8.39Q15.64 7.90 16.00 7.04L16.00 7.04L16.00 7.04Q16.28 6.38 16.42 6.01L16.42 6.01L16.42 6.01Q16.56 5.64 16.56 5.49L16.56 5.49L16.56 5.49Q16.56 5.38 16.43 5.24L16.43 5.24L16.43 5.24Q16.30 5.11 16.03 4.91L16.03 4.91L16.03 4.91Q15.72 4.68 15.57 4.54L15.57 4.54L15.57 4.54Q15.43 4.40 15.43 4.24L15.43 4.24L15.43 4.24Q15.43 3.95 15.70 3.56L15.70 3.56L15.70 3.56Q15.97 3.16 16.34 2.88L16.34 2.88L16.34 2.88Q16.72 2.60 16.98 2.60L16.98 2.60L16.98 2.60Q17.30 2.60 17.69 2.88L17.69 2.88L17.69 2.88Q18.07 3.16 18.35 3.55L18.35 3.55L18.35 3.55Q18.62 3.93 18.62 4.17L18.62 4.17L18.62 4.17Q18.62 4.79 18.30 5.93L18.30 5.93L18.30 5.93Q17.99 7.07 17.50 8.39L17.50 8.39L17.50 8.39Q17.84 8.23 18.09 8.06L18.09 8.06L18.09 8.06Q18.34 7.90 18.79 7.55L18.79 7.55L18.79 7.55Q19.42 7.76 19.71 8.14L19.71 8.14L19.71 8.14Q20.01 8.53 20.01 8.97L20.01 8.97L20.01 8.97Q20.01 9.34 19.54 9.69L19.54 9.69L19.54 9.69Q19.07 10.04 18.40 10.27L18.40 10.27L18.40 10.27Q17.72 10.50 17.21 10.50L17.21 10.50ZM22.95 10.50L22.95 10.50Q22.57 10.50 22.12 10.26L22.12 10.26L22.12 10.26Q21.67 10.01 21.35 9.68L21.35 9.68L21.35 9.68Q21.03 9.35 21.03 9.13L21.03 9.13L21.03 9.13Q21.03 8.86 21.14 8.44L21.14 8.44L21.14 8.44Q21.25 8.01 21.48 7.32L21.48 7.32L21.48 7.32Q21.70 6.61 21.81 6.18L21.81 6.18L21.81 6.18Q21.92 5.75 21.92 5.49L21.92 5.49L21.92 5.49Q21.92 5.38 21.80 5.25L21.80 5.25L21.80 5.25Q21.67 5.12 21.41 4.91L21.41 4.91L21.41 4.91Q21.10 4.66 20.96 4.52L20.96 4.52L20.96 4.52Q20.82 4.38 20.82 4.24L20.82 4.24L20.82 4.24Q20.82 3.95 21.10 3.56L21.10 3.56L21.10 3.56Q21.38 3.16 21.76 2.88L21.76 2.88L21.76 2.88Q22.13 2.60 22.40 2.60L22.40 2.60L22.40 2.60Q22.69 2.60 23.07 2.87L23.07 2.87L23.07 2.87Q23.45 3.14 23.73 3.48L23.73 3.48L23.73 3.48Q24.01 3.82 24.01 4.00L24.01 4.00L24.01 4.00Q24.01 4.54 23.80 5.40L23.80 5.40L23.97 5.49L23.97 5.49Q24.29 4.97 24.68 4.25L24.68 4.25L24.68 4.25Q25.06 3.53 25.14 3.36L25.14 3.36L25.41 2.86L25.41 2.86Q26.38 2.83 26.85 3.21L26.85 3.21L26.85 3.21Q27.33 3.58 27.33 4.21L27.33 4.21L27.33 4.21Q27.33 4.83 26.92 5.45L26.92 5.45L26.92 5.45Q25.91 5.78 25.21 6.11L25.21 6.11L25.21 6.11Q24.50 6.44 23.79 6.89L23.79 6.89L23.79 6.89Q23.74 8.44 23.54 9.47L23.54 9.47L23.54 9.47Q23.34 10.50 22.95 10.50L22.95 10.50ZM30.60 10.50L30.60 10.50Q29.93 10.50 29.20 10.06L29.20 10.06L29.20 10.06Q28.48 9.62 28 8.97L28 8.97L28 8.97Q27.52 8.33 27.52 7.76L27.52 7.76L27.52 7.76Q27.52 6.73 28.01 5.52L28.01 5.52L28.01 5.52Q28.49 4.30 29.34 3.45L29.34 3.45L29.34 3.45Q30.20 2.60 31.28 2.60L31.28 2.60L31.28 2.60Q32.05 2.60 32.67 2.94L32.67 2.94L32.67 2.94Q33.29 3.28 33.64 3.78L33.64 3.78L33.64 3.78Q33.99 4.28 33.99 4.76L33.99 4.76L33.99 4.76Q33.99 5.35 33.46 5.92L33.46 5.92L33.46 5.92Q32.93 6.48 31.98 6.91L31.98 6.91L31.98 6.91Q31.02 7.34 29.81 7.52L29.81 7.52L29.81 7.52Q29.79 7.69 29.79 8.02L29.79 8.02L29.79 8.02Q29.79 8.44 29.82 8.65L29.82 8.65L29.82 8.65Q30.52 8.58 31.21 8.27L31.21 8.27L31.21 8.27Q31.89 7.97 32.70 7.41L32.70 7.41L32.70 7.41Q33.25 7.57 33.53 7.94L33.53 7.94L33.53 7.94Q33.81 8.30 33.81 8.81L33.81 8.81L33.81 8.81Q33.81 9.23 33.30 9.63L33.30 9.63L33.30 9.63Q32.79 10.02 32.03 10.26L32.03 10.26L32.03 10.26Q31.28 10.50 30.60 10.50L30.60 10.50ZM30.02 6.47L30.02 6.47Q30.87 6.16 31.44 5.68L31.44 5.68L31.44 5.68Q32.02 5.21 32.02 4.87L32.02 4.87L32.02 4.87Q32.02 4.48 31.47 4.34L31.47 4.34L31.47 4.34Q30.94 4.73 30.57 5.28L30.57 5.28L30.57 5.28Q30.20 5.82 30.02 6.47L30.02 6.47Z"></path></g><!----><!----></svg>